<svg width="309" height="46" viewBox="0 0 309 46" fill="none" xmlns="http://www.w3.org/2000/svg">
<path d="M13.104 36.48C10.032 36.48 7.504 36.048 5.52 35.184C3.568 34.288 2.16 33.12 1.296 31.68C0.464 30.208 0.176 28.656 0.432 27.024C0.464 26.768 0.576 26.544 0.768 26.352C0.992 26.128 1.248 26.016 1.536 26.016H6.768C7.184 26.016 7.488 26.112 7.68 26.304C7.872 26.464 8.048 26.672 8.208 26.928C8.304 27.472 8.544 28 8.928 28.512C9.344 29.024 9.936 29.456 10.704 29.808C11.472 30.128 12.448 30.288 13.632 30.288C15.744 30.288 17.408 29.952 18.624 29.28C19.84 28.608 20.576 27.696 20.832 26.544C21.024 25.712 20.896 25.04 20.448 24.528C20 24.016 19.2 23.552 18.048 23.136C16.928 22.72 15.44 22.272 13.584 21.792C11.28 21.28 9.392 20.576 7.92 19.68C6.448 18.752 5.424 17.6 4.848 16.224C4.304 14.848 4.24 13.2 4.656 11.28C5.264 8.4 6.8 6.128 9.264 4.464C11.728 2.768 14.928 1.92 18.864 1.92C20.912 1.92 22.704 2.208 24.24 2.784C25.808 3.36 27.104 4.112 28.128 5.04C29.184 5.968 29.936 6.96 30.384 8.016C30.832 9.072 30.976 10.096 30.816 11.088C30.784 11.344 30.656 11.584 30.432 11.808C30.24 12 30 12.096 29.712 12.096H24.24C23.92 12.096 23.648 12.032 23.424 11.904C23.2 11.776 23.024 11.552 22.896 11.232C22.896 10.4 22.48 9.68 21.648 9.072C20.848 8.432 19.76 8.112 18.384 8.112C16.816 8.112 15.488 8.4 14.4 8.976C13.312 9.552 12.624 10.432 12.336 11.616C12.176 12.384 12.272 13.04 12.624 13.584C13.008 14.096 13.696 14.56 14.688 14.976C15.712 15.36 17.104 15.792 18.864 16.272C21.552 16.848 23.68 17.584 25.248 18.48C26.816 19.376 27.872 20.496 28.416 21.84C28.992 23.184 29.072 24.816 28.656 26.736C27.984 29.936 26.32 32.368 23.664 34.032C21.008 35.664 17.488 36.48 13.104 36.48ZM30.5456 45.12C30.1936 45.12 29.9376 45.008 29.7776 44.784C29.5856 44.56 29.5216 44.272 29.5856 43.92L36.3536 12.24C36.4176 11.888 36.5776 11.6 36.8336 11.376C37.1216 11.152 37.4256 11.04 37.7456 11.04H42.3536C42.6736 11.04 42.9136 11.152 43.0736 11.376C43.2656 11.6 43.3296 11.888 43.2656 12.24L42.8816 14.064C43.8736 13.04 44.9616 12.208 46.1456 11.568C47.3296 10.896 48.8656 10.56 50.7536 10.56C52.3856 10.56 53.7776 10.832 54.9296 11.376C56.1136 11.888 57.0416 12.656 57.7136 13.68C58.4176 14.672 58.8816 15.872 59.1056 17.28C59.3296 18.656 59.2976 20.192 59.0096 21.888C58.9136 22.496 58.8016 23.04 58.6736 23.52C58.5776 24 58.4496 24.544 58.2896 25.152C57.8736 26.784 57.3136 28.304 56.6096 29.712C55.9056 31.088 55.0416 32.288 54.0176 33.312C52.9936 34.304 51.8096 35.088 50.4656 35.664C49.1536 36.208 47.6656 36.48 46.0016 36.48C44.2736 36.48 42.8336 36.192 41.6816 35.616C40.5616 35.008 39.7296 34.192 39.1856 33.168L36.8816 43.92C36.8176 44.272 36.6416 44.56 36.3536 44.784C36.0976 45.008 35.8096 45.12 35.4896 45.12H30.5456ZM44.6576 30.72C45.8096 30.72 46.7856 30.464 47.5856 29.952C48.4176 29.408 49.0896 28.704 49.6016 27.84C50.1456 26.976 50.5776 26.032 50.8976 25.008C51.0576 24.528 51.1856 24.032 51.2816 23.52C51.3776 23.008 51.4576 22.512 51.5216 22.032C51.6496 21.008 51.6496 20.064 51.5216 19.2C51.4256 18.336 51.1056 17.648 50.5616 17.136C50.0176 16.592 49.1696 16.32 48.0176 16.32C46.8336 16.32 45.7936 16.592 44.8976 17.136C44.0336 17.68 43.3296 18.368 42.7856 19.2C42.2416 20.032 41.8416 20.928 41.5856 21.888C41.4256 22.464 41.2816 23.056 41.1536 23.664C41.0256 24.272 40.9136 24.88 40.8176 25.488C40.6576 26.384 40.6576 27.232 40.8176 28.032C41.0096 28.8 41.4096 29.44 42.0176 29.952C42.6256 30.464 43.5056 30.72 44.6576 30.72ZM70.5341 36.48C68.9341 36.48 67.5421 36.224 66.3581 35.712C65.2061 35.168 64.2941 34.4 63.6221 33.408C62.9501 32.384 62.5021 31.184 62.2781 29.808C62.0861 28.4 62.1341 26.848 62.4221 25.152C62.5181 24.544 62.6141 24 62.7101 23.52C62.8381 23.008 62.9661 22.464 63.0941 21.888C63.5101 20.224 64.0701 18.704 64.7741 17.328C65.4781 15.952 66.3421 14.768 67.3661 13.776C68.3901 12.752 69.5741 11.968 70.9181 11.424C72.2941 10.848 73.8301 10.56 75.5261 10.56C77.5101 10.56 79.0141 10.864 80.0381 11.472C81.0621 12.048 81.8621 12.768 82.4381 13.632L82.7261 12.24C82.7901 11.888 82.9501 11.6 83.2061 11.376C83.4941 11.152 83.7981 11.04 84.1181 11.04H88.6781C89.0301 11.04 89.2861 11.152 89.4461 11.376C89.6381 11.6 89.7021 11.888 89.6381 12.24L84.8381 34.8C84.7741 35.152 84.6141 35.44 84.3581 35.664C84.1021 35.888 83.7981 36 83.4461 36H78.8861C78.5341 36 78.2621 35.888 78.0701 35.664C77.9101 35.44 77.8621 35.152 77.9261 34.8L78.2621 33.168C77.3021 34.128 76.2461 34.928 75.0941 35.568C73.9421 36.176 72.4221 36.48 70.5341 36.48ZM73.2701 30.72C74.4861 30.72 75.5101 30.448 76.3421 29.904C77.2061 29.36 77.8941 28.672 78.4061 27.84C78.9501 27.008 79.3501 26.112 79.6061 25.152C79.7661 24.544 79.9101 23.936 80.0381 23.328C80.1661 22.72 80.2781 22.128 80.3741 21.552C80.5341 20.656 80.5341 19.824 80.3741 19.056C80.2141 18.256 79.8301 17.6 79.2221 17.088C78.6461 16.576 77.7821 16.32 76.6301 16.32C75.5101 16.32 74.5501 16.592 73.7501 17.136C72.9501 17.648 72.2941 18.336 71.7821 19.2C71.2701 20.064 70.8701 21.008 70.5821 22.032C70.4541 22.512 70.3261 23.008 70.1981 23.52C70.0701 24.032 69.9741 24.528 69.9101 25.008C69.7821 26.032 69.7501 26.976 69.8141 27.84C69.9101 28.704 70.2301 29.408 70.7741 29.952C71.3181 30.464 72.1501 30.72 73.2701 30.72ZM101.984 36.48C99.8083 36.48 97.8723 36.048 96.1763 35.184C94.5123 34.32 93.2803 33.072 92.4803 31.44C91.7123 29.776 91.5203 27.792 91.9043 25.488C92.0003 24.976 92.1283 24.336 92.2883 23.568C92.4483 22.768 92.5923 22.112 92.7203 21.6C93.5843 18.112 95.2163 15.408 97.6163 13.488C100.048 11.536 103.088 10.56 106.736 10.56C108.816 10.56 110.56 10.864 111.968 11.472C113.376 12.08 114.496 12.848 115.328 13.776C116.16 14.672 116.72 15.616 117.008 16.608C117.328 17.568 117.44 18.416 117.344 19.152C117.312 19.504 117.168 19.792 116.912 20.016C116.656 20.24 116.368 20.352 116.048 20.352H110.816C110.496 20.352 110.24 20.272 110.048 20.112C109.888 19.952 109.776 19.696 109.712 19.344C109.68 18.224 109.36 17.408 108.752 16.896C108.176 16.384 107.328 16.128 106.208 16.128C104.768 16.128 103.504 16.592 102.416 17.52C101.36 18.448 100.592 19.888 100.112 21.84C99.9523 22.448 99.8083 23.056 99.6803 23.664C99.5523 24.24 99.4563 24.768 99.3923 25.248C99.0723 27.232 99.1843 28.672 99.7283 29.568C100.304 30.464 101.312 30.912 102.752 30.912C103.872 30.912 104.864 30.672 105.728 30.192C106.592 29.712 107.328 28.912 107.936 27.792C108.128 27.44 108.32 27.184 108.512 27.024C108.736 26.864 109.024 26.784 109.376 26.784H114.56C114.912 26.784 115.168 26.912 115.328 27.168C115.52 27.392 115.568 27.664 115.472 27.984C115.28 28.656 114.88 29.472 114.272 30.432C113.696 31.392 112.864 32.336 111.776 33.264C110.72 34.192 109.376 34.96 107.744 35.568C106.144 36.176 104.224 36.48 101.984 36.48ZM130.165 36.48C127.733 36.48 125.701 36.032 124.069 35.136C122.469 34.208 121.365 32.848 120.757 31.056C120.149 29.264 120.069 27.072 120.517 24.48C120.581 24.224 120.645 23.888 120.709 23.472C120.805 23.024 120.901 22.672 120.997 22.416C121.637 19.952 122.629 17.84 123.973 16.08C125.349 14.288 127.029 12.928 129.013 12C131.029 11.04 133.237 10.56 135.637 10.56C138.325 10.56 140.437 11.12 141.973 12.24C143.541 13.328 144.581 14.832 145.093 16.752C145.605 18.64 145.605 20.816 145.093 23.28L144.901 24.384C144.837 24.704 144.661 24.976 144.373 25.2C144.085 25.424 143.765 25.536 143.413 25.536H127.765C127.765 25.568 127.749 25.632 127.717 25.728C127.717 25.792 127.701 25.856 127.669 25.92C127.509 26.944 127.509 27.888 127.669 28.752C127.829 29.584 128.197 30.256 128.773 30.768C129.381 31.28 130.165 31.536 131.125 31.536C131.893 31.536 132.565 31.424 133.141 31.2C133.717 30.976 134.197 30.704 134.581 30.384C134.997 30.064 135.317 29.792 135.541 29.568C135.893 29.248 136.165 29.056 136.357 28.992C136.549 28.896 136.837 28.848 137.221 28.848H142.213C142.533 28.848 142.773 28.944 142.933 29.136C143.093 29.296 143.125 29.536 143.029 29.856C142.901 30.368 142.501 31.008 141.829 31.776C141.189 32.512 140.309 33.248 139.189 33.984C138.069 34.688 136.741 35.28 135.205 35.76C133.701 36.24 132.021 36.48 130.165 36.48ZM128.725 21.168H138.133V21.072C138.421 19.92 138.453 18.928 138.229 18.096C138.037 17.232 137.637 16.56 137.029 16.08C136.421 15.6 135.621 15.36 134.629 15.36C133.637 15.36 132.741 15.6 131.941 16.08C131.141 16.56 130.469 17.232 129.925 18.096C129.413 18.928 129.013 19.92 128.725 21.072V21.168ZM156.854 36.48C154.87 36.48 153.206 36.256 151.862 35.808C150.55 35.328 149.526 34.752 148.79 34.08C148.054 33.408 147.542 32.736 147.254 32.064C146.998 31.36 146.902 30.768 146.966 30.288C147.03 29.936 147.19 29.648 147.446 29.424C147.734 29.2 148.022 29.088 148.31 29.088H152.918C153.046 29.088 153.142 29.104 153.206 29.136C153.302 29.168 153.398 29.248 153.493 29.376C153.846 29.664 154.198 30 154.55 30.384C154.934 30.736 155.398 31.04 155.942 31.296C156.486 31.552 157.19 31.68 158.054 31.68C159.11 31.68 160.054 31.472 160.886 31.056C161.718 30.608 162.214 29.984 162.374 29.184C162.502 28.608 162.438 28.128 162.182 27.744C161.926 27.36 161.366 27.008 160.502 26.688C159.638 26.368 158.342 26.016 156.614 25.632C154.982 25.248 153.622 24.736 152.534 24.096C151.478 23.456 150.742 22.656 150.326 21.696C149.91 20.704 149.846 19.52 150.134 18.144C150.422 16.896 151.062 15.696 152.054 14.544C153.078 13.392 154.438 12.448 156.134 11.712C157.862 10.944 159.878 10.56 162.182 10.56C163.942 10.56 165.446 10.784 166.694 11.232C167.942 11.648 168.934 12.192 169.67 12.864C170.438 13.504 170.966 14.176 171.254 14.88C171.574 15.552 171.686 16.144 171.59 16.656C171.558 16.976 171.398 17.248 171.109 17.472C170.854 17.696 170.582 17.808 170.294 17.808H166.07C165.91 17.808 165.766 17.792 165.638 17.76C165.542 17.696 165.462 17.616 165.398 17.52C165.046 17.264 164.71 16.976 164.39 16.656C164.07 16.304 163.654 16 163.142 15.744C162.662 15.488 161.99 15.36 161.126 15.36C160.07 15.36 159.206 15.6 158.534 16.08C157.894 16.528 157.494 17.104 157.334 17.808C157.238 18.256 157.286 18.672 157.478 19.056C157.702 19.44 158.214 19.792 159.014 20.112C159.846 20.432 161.142 20.768 162.902 21.12C164.982 21.504 166.582 22.08 167.702 22.848C168.854 23.616 169.59 24.512 169.91 25.536C170.262 26.528 170.31 27.6 170.054 28.752C169.766 30.256 169.046 31.6 167.894 32.784C166.742 33.936 165.238 34.848 163.382 35.52C161.526 36.16 159.35 36.48 156.854 36.48ZM173.653 36C173.333 36 173.077 35.888 172.885 35.664C172.693 35.44 172.629 35.152 172.693 34.8L179.461 3.12C179.525 2.768 179.685 2.48 179.941 2.256C180.229 2.032 180.533 1.92 180.853 1.92H186.037C186.389 1.92 186.645 2.032 186.805 2.256C186.997 2.48 187.061 2.768 186.997 3.12L184.693 13.92C185.685 12.896 186.805 12.08 188.053 11.472C189.333 10.864 190.837 10.56 192.565 10.56C194.613 10.56 196.309 10.992 197.653 11.856C198.997 12.688 199.925 13.92 200.437 15.552C200.949 17.152 200.965 19.104 200.485 21.408L197.605 34.8C197.541 35.152 197.365 35.44 197.077 35.664C196.821 35.888 196.533 36 196.213 36H190.981C190.629 36 190.357 35.888 190.165 35.664C190.005 35.44 189.957 35.152 190.021 34.8L192.805 21.696C193.157 20 193.061 18.688 192.517 17.76C192.005 16.8 190.965 16.32 189.397 16.32C188.405 16.32 187.461 16.528 186.565 16.944C185.701 17.36 184.949 17.968 184.309 18.768C183.701 19.568 183.269 20.544 183.013 21.696L180.229 34.8C180.165 35.152 180.005 35.44 179.749 35.664C179.493 35.888 179.189 36 178.837 36H173.653ZM204.309 36C203.989 36 203.733 35.888 203.541 35.664C203.349 35.44 203.285 35.152 203.349 34.8L208.149 12.24C208.213 11.888 208.389 11.6 208.677 11.376C208.965 11.152 209.269 11.04 209.589 11.04H214.389C214.741 11.04 214.997 11.152 215.157 11.376C215.317 11.6 215.365 11.888 215.301 12.24L210.501 34.8C210.437 35.152 210.277 35.44 210.021 35.664C209.765 35.888 209.461 36 209.109 36H204.309ZM210.309 7.2C209.957 7.2 209.685 7.088 209.493 6.864C209.333 6.64 209.285 6.352 209.349 6L210.165 2.16C210.229 1.808 210.389 1.52 210.645 1.296C210.933 1.04 211.253 0.912 211.605 0.912H216.645C216.997 0.912 217.253 1.04 217.413 1.296C217.605 1.52 217.669 1.808 217.605 2.16L216.741 6C216.709 6.352 216.549 6.64 216.261 6.864C215.973 7.088 215.669 7.2 215.349 7.2H210.309ZM220.216 36C219.896 36 219.64 35.888 219.448 35.664C219.256 35.44 219.192 35.152 219.256 34.8L223.144 16.704H219.352C219.032 16.704 218.776 16.592 218.584 16.368C218.424 16.144 218.376 15.856 218.44 15.504L219.112 12.24C219.176 11.888 219.352 11.6 219.64 11.376C219.928 11.152 220.232 11.04 220.552 11.04H224.344L224.728 9.312C225.176 7.264 225.896 5.584 226.888 4.272C227.88 2.96 229.128 2 230.632 1.392C232.136 0.783999 233.88 0.48 235.864 0.48H240.04C240.36 0.48 240.6 0.591999 240.76 0.815998C240.952 1.04 241.016 1.328 240.952 1.68L240.232 4.944C240.168 5.296 239.992 5.584 239.704 5.808C239.448 6.032 239.144 6.144 238.792 6.144H235.768C234.584 6.144 233.672 6.432 233.032 7.008C232.392 7.584 231.96 8.432 231.736 9.552L231.4 11.04H237.304C237.624 11.04 237.864 11.152 238.024 11.376C238.216 11.6 238.28 11.888 238.216 12.24L237.496 15.504C237.432 15.856 237.256 16.144 236.968 16.368C236.712 16.592 236.424 16.704 236.104 16.704H230.2L226.312 34.8C226.248 35.152 226.088 35.44 225.832 35.664C225.576 35.888 225.272 36 224.92 36H220.216ZM249.007 36C246.831 36 245.087 35.68 243.775 35.04C242.463 34.368 241.583 33.344 241.135 31.968C240.719 30.592 240.719 28.864 241.135 26.784L243.295 16.704H239.551C239.199 16.704 238.927 16.592 238.735 16.368C238.575 16.144 238.527 15.856 238.591 15.504L239.263 12.24C239.327 11.888 239.503 11.6 239.791 11.376C240.079 11.152 240.383 11.04 240.703 11.04H244.495L246.175 3.12C246.239 2.768 246.399 2.48 246.655 2.256C246.943 2.032 247.263 1.92 247.615 1.92H252.319C252.639 1.92 252.895 2.032 253.087 2.256C253.279 2.48 253.343 2.768 253.279 3.12L251.551 11.04H257.551C257.903 11.04 258.159 11.152 258.319 11.376C258.479 11.6 258.527 11.888 258.463 12.24L257.791 15.504C257.727 15.856 257.551 16.144 257.263 16.368C257.007 16.592 256.703 16.704 256.351 16.704H250.351L248.335 26.208C248.175 27.008 248.079 27.712 248.047 28.32C248.047 28.896 248.207 29.344 248.527 29.664C248.879 29.952 249.471 30.096 250.303 30.096H253.951C254.271 30.096 254.511 30.208 254.671 30.432C254.863 30.656 254.927 30.928 254.863 31.248L254.095 34.8C254.031 35.152 253.871 35.44 253.615 35.664C253.359 35.888 253.055 36 252.703 36H249.007ZM269.665 36.48C267.233 36.48 265.201 36.032 263.569 35.136C261.969 34.208 260.865 32.848 260.257 31.056C259.649 29.264 259.569 27.072 260.017 24.48C260.081 24.224 260.145 23.888 260.209 23.472C260.305 23.024 260.401 22.672 260.497 22.416C261.137 19.952 262.129 17.84 263.473 16.08C264.849 14.288 266.529 12.928 268.513 12C270.529 11.04 272.737 10.56 275.137 10.56C277.825 10.56 279.937 11.12 281.473 12.24C283.041 13.328 284.081 14.832 284.593 16.752C285.105 18.64 285.105 20.816 284.593 23.28L284.401 24.384C284.337 24.704 284.161 24.976 283.873 25.2C283.585 25.424 283.265 25.536 282.913 25.536H267.265C267.265 25.568 267.249 25.632 267.217 25.728C267.217 25.792 267.201 25.856 267.169 25.92C267.009 26.944 267.009 27.888 267.169 28.752C267.329 29.584 267.697 30.256 268.273 30.768C268.881 31.28 269.665 31.536 270.625 31.536C271.393 31.536 272.065 31.424 272.641 31.2C273.217 30.976 273.697 30.704 274.081 30.384C274.497 30.064 274.817 29.792 275.041 29.568C275.393 29.248 275.665 29.056 275.857 28.992C276.049 28.896 276.337 28.848 276.721 28.848H281.713C282.033 28.848 282.273 28.944 282.433 29.136C282.593 29.296 282.625 29.536 282.529 29.856C282.401 30.368 282.001 31.008 281.329 31.776C280.689 32.512 279.809 33.248 278.689 33.984C277.569 34.688 276.241 35.28 274.705 35.76C273.201 36.24 271.521 36.48 269.665 36.48ZM268.225 21.168H277.633V21.072C277.921 19.92 277.953 18.928 277.729 18.096C277.537 17.232 277.137 16.56 276.529 16.08C275.921 15.6 275.121 15.36 274.129 15.36C273.137 15.36 272.241 15.6 271.441 16.08C270.641 16.56 269.969 17.232 269.425 18.096C268.913 18.928 268.513 19.92 268.225 21.072V21.168ZM287.138 36C286.818 36 286.562 35.888 286.37 35.664C286.178 35.44 286.114 35.152 286.178 34.8L290.978 12.24C291.042 11.92 291.218 11.648 291.506 11.424C291.794 11.168 292.098 11.04 292.418 11.04H297.122C297.442 11.04 297.682 11.168 297.842 11.424C298.034 11.648 298.098 11.92 298.034 12.24L297.65 14.16C298.418 13.2 299.378 12.448 300.53 11.904C301.714 11.328 303.154 11.04 304.85 11.04H307.394C307.714 11.04 307.954 11.152 308.114 11.376C308.306 11.6 308.37 11.888 308.306 12.24L307.394 16.368C307.33 16.72 307.154 17.008 306.866 17.232C306.61 17.456 306.322 17.568 306.002 17.568H301.826C300.386 17.568 299.186 17.968 298.226 18.768C297.298 19.536 296.674 20.64 296.354 22.08L293.618 34.8C293.554 35.152 293.378 35.44 293.09 35.664C292.834 35.888 292.53 36 292.178 36H287.138Z" fill="url(#paint0_linear_1_2)"/>
<defs>
<linearGradient id="paint0_linear_1_2" x1="153.5" y1="-9" x2="153" y2="129.5" gradientUnits="userSpaceOnUse">
<stop stop-color="#DFD0FF"/>
<stop offset="1" stop-color="#DFD0FF" stop-opacity="0"/>
<stop offset="1" stop-color="#DFD0FF" stop-opacity="0"/>
</linearGradient>
</defs>
</svg>
